# xmcd
#
# Track frame offsets: 
#        180
#        20699
#        35176
#        48448
#        81691
#        101401
#        123598
#        142647
#        153568
#        173326
#        193540
#        207263
#        224658
#
# Disc length: 3300 seconds
#
# Revision: 0
# Processed by: cddbd v1.5.2PL0 Copyright (c) Steve Scherf et al.
# Submitted via: ExactAudioCopyFreeDBPlugin 1.0
#
DISCID=ba0ce20d
DTITLE=Glass-Band - Rocks The Blues
DYEAR=1994
DGENRE=Blues
TTITLE0=Money
TTITLE1=Can't Give Up
TTITLE2=The Right One
TTITLE3=Take My Blues Away
TTITLE4=Down Town Blues
TTITLE5=I Don't Listen
TTITLE6=Big Lies
TTITLE7=Country
TTITLE8=Suicide
TTITLE9=Waste Of Time
TTITLE10=Rock It
TTITLE11=My Mother
TTITLE12=I've Got ...
EXTD=
EXTT0=
EXTT1=
EXTT2=
EXTT3=
EXTT4=
EXTT5=
EXTT6=
EXTT7=
EXTT8=
EXTT9=
EXTT10=
EXTT11=
EXTT12=
PLAYORDER=
